<svg width="256" height="256" viewBox="0 0 3551 3551" fill="none" xmlns="http://www.w3.org/2000/svg">
<mask id="mask0_2008_18" style="mask-type:luminance" maskUnits="userSpaceOnUse" x="0" y="-1" width="3551" height="3552">
<path d="M0 0.000104298H3551V3551H0V0.000104298Z" fill="white"/>
</mask>
<g mask="url(#mask0_2008_18)">
<path d="M2894.97 2904.99C2994.44 2821.7 3180.81 2896.38 3254.66 2789.71C3276.14 2758.69 3281.69 2718.21 3305.63 2689.03C3348.01 2637.35 3435.46 2643.84 3484.64 2689.1C3533.81 2734.37 3550.71 2805.44 3551 2872.27C3551.91 3089.61 3385.49 3296.16 3172.93 3341.5C3108.19 3355.3 3041.66 3345.76 2979.15 3324C2778.6 3254.2 2807.83 2977.95 2894.97 2904.99Z" fill="#EC6564"/>
<path d="M875.294 358.245C756.95 496.694 852.369 650.515 836.523 794.376C1028.18 795.328 1115.54 686.919 1084.82 492.16C1065.19 367.74 998.636 307.56 875.294 358.245Z" fill="#EC6564"/>
<path d="M2125.76 2807.6C2076.64 2867.22 2023.83 2884.82 1904.28 2884.82H1310.28V2381.64H1890.07C2087.15 2381.64 2185.68 2466.27 2185.68 2638.63C2185.68 2705.35 2164.68 2761.57 2125.76 2807.6ZM2027.22 1674.28C2027.22 1808.04 1932.39 1899.47 1798.64 1899.47H1310.28V1473.81H1777.33C1921.89 1473.81 2027.22 1558.14 2027.22 1674.28ZM2555.11 2209.28C2474.19 2138.85 2407.46 2103.64 2259.5 2061.32C2460.28 1938.38 2537.5 1808.04 2537.5 1593.36C2537.5 1417.6 2467.09 1262.54 2340.44 1153.49C2217.49 1047.85 2080.05 1005.85 1854.86 1005.85H1524.66C1521.88 843.372 1528.05 680.896 1501.18 519.659C1488.83 444.597 1471.53 379.418 1394.93 366.139C1317.08 352.547 1265.81 393.01 1237.08 474.562C1235.23 479.497 1231.84 483.832 1230.28 489.08C1166.97 716.723 1045.27 853.569 823.79 873.024C715.994 882.294 610.04 928.006 575.139 1079.98C560.608 1142.68 497.609 1155.35 442.001 1155.66C340.995 1155.97 239.989 1159.37 138.983 1156.59C25.9254 1153.19 -4.65322 1222.07 11.7197 1334.81C37.0496 1510.88 123.224 1635.67 264.705 1708.57C378.677 1767.26 492.348 1826.88 609.414 1876C643.713 1890.2 669.343 1908.11 687.871 1930.66L689.111 1929.74V2962.36C674.905 3243.76 798.147 3367 1079.54 3352.79H2023.83C2431.87 3352.79 2745.09 3050.39 2745.09 2656.25C2745.09 2473.08 2681.76 2321.72 2555.11 2209.28Z" fill="#EC6564"/>
</g>
</svg>
