<svg width="10280" height="6254" viewBox="0 0 10280 6254" fill="none" xmlns="http://www.w3.org/2000/svg">
<path d="M2952.92 4667.82C3050.04 4667.82 3092.9 4653.54 3132.88 4604.98C3164.33 4567.83 3181.48 4522.14 3181.48 4467.88C3181.48 4327.88 3101.47 4259.31 2941.48 4259.31H2650.1V4667.82H2952.92ZM2867.21 3867.94C2975.77 3867.94 3052.91 3793.67 3052.91 3685.11C3052.91 3590.83 2967.2 3522.3 2850.07 3522.3H2650.1V3867.94H2867.21ZM2912.94 3142.37C3095.76 3142.37 3207.15 3176.62 3307.17 3262.33C3409.99 3350.87 3467.12 3476.57 3467.12 3619.41C3467.12 3793.67 3404.29 3899.35 3241.44 3999.37C3361.43 4033.66 3415.73 4062.21 3481.39 4119.33C3584.25 4210.75 3635.67 4333.58 3635.67 4482.16C3635.67 4802.08 3381.45 5047.78 3050.04 5047.78H2530.14C2301.59 5059.18 2201.61 4959.23 2213.01 4730.68V3459.43C2213.01 3325.2 2221.62 3290.91 2258.73 3239.45C2310.16 3170.88 2375.86 3142.37 2475.85 3142.37H2530.14H2912.94Z" fill="#EC6564"/>
<path d="M3844.13 3861.21C3844.13 3764.39 3847 3739.47 3872.71 3692.44C3904.13 3631.6 3978.4 3590.09 4055.54 3590.09C4129.81 3590.09 4204.08 3631.6 4235.5 3692.44C4261.21 3739.47 4264.08 3761.62 4264.08 3861.21V4760.38C4264.08 4857.21 4261.21 4882.12 4235.5 4929.15C4204.08 4989.99 4129.81 5031.5 4055.54 5031.5C3978.4 5031.5 3904.13 4989.99 3872.71 4929.15C3847 4882.12 3844.13 4859.97 3844.13 4760.38V3861.21ZM4301.2 3219.35C4301.2 3352.13 4192.64 3457.28 4058.41 3457.28C3921.27 3457.28 3812.72 3352.13 3812.72 3219.35C3812.72 3089.33 3924.1 2984.16 4061.24 2984.16C4192.64 2984.16 4301.2 3092.09 4301.2 3219.35Z" fill="#EC6564"/>
<path d="M5103.89 4751.56C5103.89 4851.54 5101.02 4877.25 5075.31 4925.81C5043.89 4988.64 4969.62 5031.5 4895.35 5031.5C4818.21 5031.5 4743.94 4988.64 4712.52 4925.81C4686.81 4877.25 4683.98 4854.41 4683.98 4751.56V3943.11C4572.55 3945.94 4509.68 3925.97 4472.53 3883.11C4441.12 3843.09 4424.01 3800.27 4424.01 3754.54C4424.01 3657.43 4486.84 3583.16 4586.83 3568.85C4615.41 3563.18 4615.41 3563.18 4683.98 3563.18V3346.07C4683.98 3246.05 4686.81 3220.37 4712.52 3174.65C4743.94 3111.78 4818.21 3068.92 4895.35 3068.92C4969.62 3068.92 5043.89 3111.78 5075.31 3171.78C5101.02 3220.37 5103.89 3243.22 5103.89 3346.07V3563.18H5180.99C5272.44 3563.18 5298.16 3566.01 5340.98 3588.86C5395.27 3617.44 5435.26 3685.97 5435.26 3754.54C5435.26 3823.11 5395.27 3891.68 5340.98 3917.39C5295.29 3940.24 5275.28 3943.11 5180.99 3943.11H5103.89V4751.56Z" fill="#EC6564"/>
<path d="M6440.79 4140.2C6420.81 4060.22 6406.5 4025.94 6380.79 3985.95C6332.23 3917.38 6252.26 3877.4 6166.55 3877.4C6026.54 3877.4 5935.13 3957.37 5875.17 4140.2H6440.79ZM5889.44 4425.88C5952.31 4594.43 6057.99 4674.4 6223.68 4674.4C6323.66 4674.4 6349.37 4665.83 6569.36 4557.31C6595.07 4545.87 6629.32 4537.3 6660.77 4537.3C6746.44 4537.3 6829.29 4620.11 6829.29 4708.69C6829.29 4880.11 6523.63 5040.06 6200.83 5040.06C5752.3 5040.06 5438.11 4737.27 5438.11 4308.75C5438.11 3863.12 5743.77 3534.59 6157.98 3534.59C6549.34 3534.59 6855.04 3851.68 6855.04 4260.19C6855.04 4377.32 6800.74 4425.88 6672.21 4425.88H5889.44Z" fill="#EC6564"/>
<path d="M8020.48 3823.11C8020.48 3917.39 7943.37 4005.94 7857.62 4005.94C7811.94 4005.94 7809.07 4005.94 7680.54 3948.81C7617.67 3920.23 7563.41 3905.95 7520.55 3905.95C7451.98 3905.95 7409.13 3934.5 7409.13 3980.22C7409.13 4034.52 7432.01 4048.79 7629.11 4125.93C7814.81 4200.21 7874.8 4234.49 7949.04 4308.76C8014.77 4380.16 8051.89 4468.74 8051.89 4571.56C8051.89 4848.67 7826.21 5040.07 7497.71 5040.07C7212.03 5040.07 6960.63 4897.23 6960.63 4737.25C6960.63 4640.13 7046.34 4548.72 7134.89 4548.72C7183.45 4548.72 7183.45 4548.72 7352 4622.99C7420.57 4654.4 7474.87 4668.71 7520.55 4668.71C7589.12 4668.71 7643.38 4625.86 7643.38 4571.56C7643.38 4523 7611.97 4497.29 7483.4 4448.73C7274.86 4371.59 7217.73 4343.05 7146.33 4291.62C7046.34 4220.18 7003.49 4125.93 7003.49 3988.8C7003.49 3728.83 7234.87 3534.56 7543.43 3534.56C7797.66 3534.56 8020.48 3668.83 8020.48 3823.11Z" fill="#EC6564"/>
<path d="M9652.16 904.277C9743.72 820.091 9925.53 883.358 9991.52 777.926C10010.7 747.237 10014.3 708.231 10035.9 679.248C10074.2 627.858 10158.2 630.182 10207.3 671.367C10256.4 712.552 10275.7 779.85 10279 843.843C10289.5 1051.95 10139.3 1257.15 9937.73 1309.99C9876.35 1326.08 9812.21 1319.91 9751.38 1301.82C9556.2 1243.89 9571.93 978.004 9652.16 904.277Z" fill="#EC6564"/>
<path d="M5421.87 2127.09C5421.87 2227.08 5419 2252.79 5393.29 2301.35C5361.87 2364.18 5287.6 2407.04 5213.33 2407.04C5136.19 2407.04 5061.92 2364.18 5030.5 2301.35C5004.79 2252.79 5001.96 2229.95 5001.96 2127.09V570.159C5001.96 470.21 5004.79 444.461 5030.5 395.903C5061.92 333.072 5136.19 290.216 5213.33 290.216C5287.6 290.216 5361.87 333.072 5393.29 395.903C5419 444.461 5421.87 467.341 5421.87 570.159V1412.89L5807.5 1018.69C5890.38 932.98 5933.2 910.099 5998.93 910.099C6113.19 910.099 6204.6 1001.51 6204.6 1118.68C6204.6 1181.51 6178.93 1224.36 6090.35 1307.2L5830.38 1558.6L6196.03 2012.84C6267.47 2101.38 6287.45 2141.37 6287.45 2198.49C6287.45 2312.75 6190.33 2407.04 6073.2 2407.04C5996.06 2407.04 5950.37 2375.62 5870.4 2272.77L5421.87 1698.57V2127.09Z" fill="#EC6564"/>
<path d="M7455.79 1198.65C7455.79 1292.93 7378.65 1381.47 7292.97 1381.47C7247.25 1381.47 7244.38 1381.47 7115.81 1324.35C7053.02 1295.76 6998.72 1281.49 6955.86 1281.49C6887.3 1281.49 6844.44 1310.04 6844.44 1355.76C6844.44 1410.06 6867.32 1424.33 7064.42 1501.47C7250.12 1575.74 7310.08 1610.03 7384.39 1684.3C7450.09 1755.7 7487.24 1844.28 7487.24 1947.1C7487.24 2224.21 7261.52 2415.61 6932.98 2415.61C6647.34 2415.61 6395.94 2272.77 6395.94 2112.78C6395.94 2015.67 6481.65 1924.25 6570.2 1924.25C6618.79 1924.25 6618.79 1924.25 6787.31 1998.52C6855.88 2029.94 6910.14 2044.25 6955.86 2044.25C7024.4 2044.25 7078.69 2001.39 7078.69 1947.1C7078.69 1898.54 7047.28 1872.83 6918.71 1824.27C6710.21 1747.13 6653.08 1718.58 6581.64 1667.16C6481.65 1595.72 6438.8 1501.47 6438.8 1364.33C6438.8 1104.37 6670.18 910.098 6978.71 910.098C7232.97 910.098 7455.79 1044.37 7455.79 1198.65Z" fill="#EC6564"/>
<path d="M8155.58 1164.37C8155.58 1015.83 8241.29 918.674 8369.86 918.674C8464.11 918.674 8524.1 961.566 8564.09 1064.38C8686.96 950.126 8786.94 910.103 8949.76 910.103C9095.47 910.103 9218.3 952.959 9315.45 1035.8C9426.84 1135.79 9466.82 1238.64 9466.82 1438.61V2127.1C9466.82 2227.08 9463.99 2252.79 9438.24 2301.35C9406.86 2364.18 9332.55 2407.04 9258.28 2407.04C9181.14 2407.04 9106.87 2364.18 9075.45 2301.35C9049.74 2252.79 9046.87 2229.95 9046.87 2127.1V1538.59C9046.87 1375.78 8955.46 1272.92 8812.65 1272.92C8678.39 1272.92 8575.53 1381.48 8575.53 1521.45V2127.1C8575.53 2227.08 8572.7 2252.79 8546.95 2301.35C8515.53 2364.18 8441.26 2407.04 8366.99 2407.04C8289.85 2407.04 8215.58 2364.18 8184.16 2301.35C8158.45 2252.79 8155.58 2229.95 8155.58 2127.1V1164.37Z" fill="#EC6564"/>
<path d="M2716.7 1658.59C2716.7 1878.53 2830.96 2024.24 3008.08 2024.24C3179.5 2024.24 3296.59 1875.7 3296.59 1661.42C3296.59 1447.18 3179.5 1301.51 3005.21 1301.51C2833.82 1301.51 2716.7 1447.18 2716.7 1658.59ZM3727.98 2158.51C3727.98 2307.05 3642.27 2407.04 3516.57 2407.04C3416.59 2407.04 3348.02 2352.74 3305.17 2241.35C3199.48 2372.75 3113.77 2415.61 2959.52 2415.61C2805.24 2415.61 2665.27 2361.31 2545.31 2255.63C2379.59 2109.92 2296.75 1909.98 2296.75 1655.72C2296.75 1424.3 2365.32 1250.08 2516.73 1101.5C2642.43 975.838 2790.97 910.102 2953.78 910.102C3102.33 910.102 3190.91 952.958 3310.9 1075.82C3356.59 964.398 3419.46 918.673 3519.41 918.673C3636.57 918.673 3727.98 1012.96 3727.98 1132.95V2158.51Z" fill="#EC6564"/>
<path d="M3970.7 1158.65C3970.7 1012.94 4053.54 918.699 4182.11 918.699C4276.39 918.699 4344.92 967.256 4390.65 1067.24C4507.78 950.114 4582.05 910.127 4679.16 910.127C4799.16 910.127 4893.44 1007.24 4893.44 1127.2C4893.44 1227.22 4850.59 1267.21 4679.16 1318.64C4450.61 1395.78 4384.95 1458.61 4390.65 1598.58V2127.08C4390.65 2227.07 4387.82 2252.78 4362.07 2301.34C4330.65 2364.17 4256.38 2407.03 4182.11 2407.03C4104.97 2407.03 4030.7 2364.17 3999.28 2301.34C3973.57 2252.78 3970.7 2229.94 3970.7 2127.08V1158.65Z" fill="#EC6564"/>
<path d="M693.033 14.3663C598.496 124.956 674.728 247.821 662.053 362.696C815.135 363.459 884.939 276.876 860.388 121.324C844.699 21.9568 791.529 -26.1288 693.033 14.3663Z" fill="#EC6564"/>
<path d="M1691.8 1970.7C1652.57 2018.31 1610.37 2032.37 1514.89 2032.37H1040.46V1630.47H1503.56C1660.96 1630.47 1739.66 1698.09 1739.66 1835.74C1739.66 1889.02 1722.89 1933.94 1691.8 1970.7ZM1613.09 1065.5C1613.09 1172.35 1537.37 1245.35 1430.52 1245.35H1040.46V905.37H1413.49C1528.94 905.37 1613.09 972.741 1613.09 1065.5ZM2034.71 1492.82C1970.1 1436.56 1916.79 1408.45 1798.61 1374.64C1958.99 1276.44 2020.66 1172.35 2020.66 1000.85C2020.66 860.481 1964.4 736.635 1863.26 649.543C1765.09 565.176 1655.3 531.617 1475.41 531.617H1211.7C1209.45 401.852 1214.39 272.086 1192.93 143.301C1183.08 83.3391 1169.25 31.2947 1108.09 20.6533C1045.91 9.83057 1004.94 42.1179 981.989 107.273C980.5 111.232 977.813 114.682 976.578 118.859C925.986 300.705 828.798 409.987 651.891 425.531C565.78 432.94 481.158 469.44 453.302 590.816C441.68 640.9 391.379 651.032 346.962 651.287C266.299 651.505 185.599 654.228 104.936 652.013C14.6482 649.289 -9.79403 704.312 3.2806 794.381C23.51 935.006 92.3333 1034.66 205.356 1092.88C296.37 1139.77 387.166 1187.38 480.686 1226.61C508.07 1237.97 528.518 1252.28 543.336 1270.26L544.316 1269.54V2094.29C532.985 2319.06 631.408 2417.49 856.182 2406.16H1610.37C1936.29 2406.16 2186.45 2164.6 2186.45 1849.79C2186.45 1703.5 2135.9 1582.6 2034.71 1492.82Z" fill="#EC6564"/>
<path d="M2255.08 6048C2241.74 6048 2235.07 6040.44 2235.07 6025.32V5642.46C2235.07 5633.13 2237.07 5625.79 2241.07 5620.45C2245.52 5615.12 2251.74 5612.45 2259.75 5612.45H2269.08C2276.2 5612.45 2281.98 5614.23 2286.43 5617.79C2291.32 5620.9 2296.21 5626.23 2301.1 5633.79L2534.55 5966.63V5635.13C2534.55 5627.57 2536.11 5622.01 2539.22 5618.45C2542.78 5614.45 2548.11 5612.45 2555.23 5612.45H2561.23C2575.01 5612.45 2581.91 5620.01 2581.91 5635.13V6018.65C2581.91 6027.55 2579.68 6034.66 2575.24 6040C2571.23 6045.33 2565.45 6048 2557.89 6048H2553.89C2546.33 6048 2540.77 6046.89 2537.22 6044.67C2533.66 6042.44 2529.66 6038 2525.21 6031.33L2281.76 5685.15V6025.32C2281.76 6040.44 2274.86 6048 2261.08 6048H2255.08ZM2653.29 5963.96C2653.29 5928.39 2670.63 5902.37 2705.31 5885.92C2740.44 5869.02 2795.8 5860.13 2871.39 5859.24H2878.73V5845.9C2878.73 5818.78 2871.17 5798.1 2856.05 5783.87C2841.38 5769.19 2820.26 5761.86 2792.69 5761.86C2768.68 5761.86 2748.44 5766.97 2731.99 5777.2C2715.98 5787.43 2703.76 5801.21 2695.31 5818.55C2694.42 5819 2691.3 5818.78 2685.97 5817.89C2681.08 5816.55 2676.41 5814.11 2671.96 5810.55C2667.96 5806.55 2665.96 5800.99 2665.96 5793.87C2665.96 5788.98 2667.52 5783.42 2670.63 5777.2C2674.19 5770.53 2679.08 5764.3 2685.3 5758.52C2696.86 5747.41 2711.98 5738.29 2730.66 5731.18C2749.33 5724.06 2770.9 5720.5 2795.36 5720.5C2837.16 5720.5 2869.39 5731.62 2892.07 5753.85C2914.75 5776.09 2926.09 5806.99 2926.09 5846.57V6043.33C2926.09 6044.22 2924.09 6045.33 2920.09 6046.67C2916.53 6048 2912.75 6048.67 2908.75 6048.67C2892.29 6048.67 2882.96 6038.44 2880.73 6017.99C2879.84 6005.54 2879.4 5995.75 2879.4 5988.64C2868.73 6008.2 2852.94 6023.77 2832.04 6035.33C2811.14 6046.89 2787.58 6052.67 2761.34 6052.67C2727.99 6052.67 2701.53 6044.67 2681.97 6028.66C2662.85 6012.65 2653.29 5991.08 2653.29 5963.96ZM2878.73 5890.59L2867.39 5891.26C2808.7 5892.59 2766.23 5898.82 2740 5909.93C2714.21 5921.05 2701.31 5938.61 2701.31 5962.62C2701.31 5979.08 2707.54 5992.2 2719.99 6001.98C2732.44 6011.76 2749.33 6016.65 2770.68 6016.65C2790.69 6016.65 2808.92 6012.43 2825.37 6003.98C2841.82 5995.53 2854.72 5984.19 2864.06 5969.96C2873.84 5955.29 2878.73 5939.06 2878.73 5921.27V5890.59ZM3112.9 6053.34C3083.55 6053.34 3061.54 6045.11 3046.86 6028.66C3032.63 6012.21 3025.52 5987.08 3025.52 5953.29V5768.53H2994.17C2980.39 5768.53 2973.49 5762.52 2973.49 5750.52V5745.85C2973.49 5733.84 2980.39 5727.84 2994.17 5727.84H3025.52V5671.81C3025.52 5656.25 3032.63 5648.47 3046.86 5648.47H3052.2C3065.98 5648.47 3072.88 5656.25 3072.88 5671.81V5727.84H3153.58C3167.37 5727.84 3174.26 5733.84 3174.26 5745.85V5749.85C3174.26 5762.3 3167.15 5768.53 3152.92 5768.53H3072.21V5945.95C3072.21 5969.52 3075.99 5986.64 3083.55 5997.31C3091.11 6007.54 3103.11 6012.65 3119.57 6012.65C3140.02 6012.65 3155.81 6004.42 3166.92 5987.97C3167.81 5987.53 3169.37 5988.19 3171.59 5989.97C3173.82 5991.31 3175.82 5993.75 3177.59 5997.31C3179.37 6000.87 3180.26 6005.09 3180.26 6009.98C3180.26 6018.88 3176.26 6027.1 3168.26 6034.66C3154.92 6047.11 3136.46 6053.34 3112.9 6053.34ZM3480.43 5725.17C3494.66 5725.17 3501.78 5732.73 3501.78 5747.85V6043.33C3501.78 6044.22 3499.78 6045.33 3495.77 6046.67C3492.22 6048 3488.44 6048.67 3484.44 6048.67C3467.98 6048.67 3458.65 6038.22 3456.42 6017.32C3455.53 6005.76 3455.09 5997.09 3455.09 5991.31C3443.53 6009.98 3428.41 6025.1 3409.73 6036.66C3391.5 6047.78 3370.16 6053.34 3345.7 6053.34C3305.68 6053.34 3275.22 6040.89 3254.32 6015.98C3233.87 5990.64 3223.64 5956.84 3223.64 5914.6V5747.85C3223.64 5732.73 3230.75 5725.17 3244.98 5725.17H3250.32C3264.55 5725.17 3271.66 5732.73 3271.66 5747.85V5911.27C3271.66 5942.39 3279 5966.85 3293.67 5984.64C3308.35 6001.98 3329.02 6010.65 3355.7 6010.65C3377.94 6010.65 3397.5 6004.87 3414.4 5993.31C3431.74 5981.75 3444.86 5965.96 3453.75 5945.95V5747.85C3453.75 5732.73 3460.65 5725.17 3474.43 5725.17H3480.43ZM3716.56 5720.5C3730.79 5720.5 3742.13 5723.84 3750.58 5730.51C3759.47 5736.73 3763.92 5744.96 3763.92 5755.19C3763.92 5760.97 3762.81 5765.86 3760.58 5769.86C3758.81 5773.86 3756.58 5776.98 3753.91 5779.2C3751.25 5780.98 3749.69 5781.65 3749.25 5781.2C3740.35 5772.31 3727.68 5767.86 3711.23 5767.86C3685.88 5767.86 3666.76 5779.42 3653.86 5802.54C3641.41 5825.67 3635.19 5857.91 3635.19 5899.26V6025.32C3635.19 6040.44 3628.3 6048 3614.51 6048H3609.18C3594.5 6048 3587.16 6040.44 3587.16 6025.32V5730.51C3587.16 5729.62 3588.94 5728.51 3592.5 5727.17C3596.06 5725.84 3600.06 5725.17 3604.51 5725.17C3620.96 5725.17 3630.3 5735.84 3632.52 5757.19C3633.41 5772.31 3633.85 5783.87 3633.85 5791.87C3640.08 5768.31 3650.31 5750.52 3664.54 5738.51C3678.77 5726.51 3696.11 5720.5 3716.56 5720.5ZM3790.57 5963.96C3790.57 5928.39 3807.92 5902.37 3842.6 5885.92C3877.73 5869.02 3933.09 5860.13 4008.68 5859.24H4016.02V5845.9C4016.02 5818.78 4008.46 5798.1 3993.34 5783.87C3978.67 5769.19 3957.55 5761.86 3929.98 5761.86C3905.96 5761.86 3885.73 5766.97 3869.28 5777.2C3853.27 5787.43 3841.04 5801.21 3832.59 5818.55C3831.7 5819 3828.59 5818.78 3823.26 5817.89C3818.36 5816.55 3813.7 5814.11 3809.25 5810.55C3805.25 5806.55 3803.25 5800.99 3803.25 5793.87C3803.25 5788.98 3804.8 5783.42 3807.92 5777.2C3811.47 5770.53 3816.36 5764.3 3822.59 5758.52C3834.15 5747.41 3849.27 5738.29 3867.95 5731.18C3886.62 5724.06 3908.19 5720.5 3932.64 5720.5C3974.44 5720.5 4006.68 5731.62 4029.36 5753.85C4052.04 5776.09 4063.38 5806.99 4063.38 5846.57V6043.33C4063.38 6044.22 4061.38 6045.33 4057.37 6046.67C4053.82 6048 4050.04 6048.67 4046.03 6048.67C4029.58 6048.67 4020.24 6038.44 4018.02 6017.99C4017.13 6005.54 4016.69 5995.75 4016.69 5988.64C4006.01 6008.2 3990.23 6023.77 3969.33 6035.33C3948.43 6046.89 3924.86 6052.67 3898.63 6052.67C3865.28 6052.67 3838.82 6044.67 3819.25 6028.66C3800.13 6012.65 3790.57 5991.08 3790.57 5963.96ZM4016.02 5890.59L4004.68 5891.26C3945.98 5892.59 3903.52 5898.82 3877.28 5909.93C3851.49 5921.05 3838.6 5938.61 3838.6 5962.62C3838.6 5979.08 3844.82 5992.2 3857.27 6001.98C3869.72 6011.76 3886.62 6016.65 3907.97 6016.65C3927.98 6016.65 3946.21 6012.43 3962.66 6003.98C3979.11 5995.53 3992.01 5984.19 4001.35 5969.96C4011.13 5955.29 4016.02 5939.06 4016.02 5921.27V5890.59ZM4170.72 6048C4156.49 6048 4149.37 6040.44 4149.37 6025.32V5596.44C4149.37 5595.55 4151.15 5594.44 4154.71 5593.11C4158.27 5591.77 4162.27 5591.11 4166.71 5591.11C4187.17 5591.11 4197.4 5605.34 4197.4 5633.79V6025.32C4197.4 6040.44 4190.28 6048 4176.05 6048H4170.72ZM4446.78 6027.32C4446.33 6041.11 4439.66 6048 4426.77 6048H4421.43C4414.76 6048 4409.42 6046.22 4405.42 6042.66C4401.86 6039.11 4400.09 6032.88 4400.09 6023.99V5596.44C4400.09 5595.11 4401.64 5594 4404.75 5593.11C4408.31 5591.77 4412.31 5591.11 4416.76 5591.11C4437.22 5591.11 4447.44 5605.34 4447.44 5633.79V5786.54C4474.57 5742.51 4513.7 5720.5 4564.83 5720.5C4591.96 5720.5 4616.64 5727.4 4638.87 5741.18C4661.11 5754.97 4678.45 5774.53 4690.9 5799.88C4703.79 5824.78 4710.24 5853.46 4710.24 5885.92C4710.24 5918.38 4703.79 5947.51 4690.9 5973.3C4678.45 5998.64 4660.88 6018.43 4638.2 6032.66C4615.97 6046.44 4590.63 6053.34 4562.17 6053.34C4534.15 6053.34 4510.14 6047.11 4490.13 6034.66C4470.12 6022.21 4455.67 6006.42 4446.78 5987.3V6027.32ZM4662.88 5886.59C4662.88 5862.13 4658.21 5840.56 4648.88 5821.89C4639.54 5802.77 4626.64 5787.87 4610.19 5777.2C4594.18 5766.53 4575.95 5761.19 4555.5 5761.19C4529.26 5761.19 4506.81 5768.08 4488.13 5781.87C4469.9 5795.21 4456.11 5813.88 4446.78 5837.9V5909.93C4446.78 5929.05 4451.67 5946.39 4461.45 5961.96C4471.23 5977.52 4484.13 5989.97 4500.14 5999.31C4516.59 6008.2 4534.6 6012.65 4554.16 6012.65C4586.62 6012.65 4612.86 6001.09 4632.87 5977.97C4652.88 5954.84 4662.88 5924.38 4662.88 5886.59ZM4773.24 5627.79C4773.24 5618.01 4775.91 5610.45 4781.25 5605.11C4786.58 5599.78 4794.14 5597.11 4803.92 5597.11C4813.71 5597.11 4821.27 5599.78 4826.6 5605.11C4831.94 5610.45 4834.61 5618.01 4834.61 5627.79C4834.61 5637.57 4831.71 5645.13 4825.93 5650.47C4820.6 5655.36 4813.04 5657.81 4803.26 5657.81C4793.92 5657.81 4786.58 5655.36 4781.25 5650.47C4775.91 5645.13 4773.24 5637.57 4773.24 5627.79ZM4779.24 5748.52C4779.24 5732.95 4786.36 5725.17 4800.59 5725.17H4805.92C4820.15 5725.17 4827.27 5732.95 4827.27 5748.52V6025.32C4827.27 6040.44 4820.15 6048 4805.92 6048H4800.59C4786.36 6048 4779.24 6040.44 4779.24 6025.32V5748.52ZM5024.01 6053.34C4994.66 6053.34 4972.65 6045.11 4957.97 6028.66C4943.74 6012.21 4936.63 5987.08 4936.63 5953.29V5768.53H4905.28C4891.5 5768.53 4884.6 5762.52 4884.6 5750.52V5745.85C4884.6 5733.84 4891.5 5727.84 4905.28 5727.84H4936.63V5671.81C4936.63 5656.25 4943.74 5648.47 4957.97 5648.47H4963.31C4977.09 5648.47 4983.99 5656.25 4983.99 5671.81V5727.84H5064.69C5078.48 5727.84 5085.37 5733.84 5085.37 5745.85V5749.85C5085.37 5762.3 5078.26 5768.53 5064.03 5768.53H4983.32V5945.95C4983.32 5969.52 4987.1 5986.64 4994.66 5997.31C5002.22 6007.54 5014.22 6012.65 5030.68 6012.65C5051.13 6012.65 5066.92 6004.42 5078.03 5987.97C5078.92 5987.53 5080.48 5988.19 5082.7 5989.97C5084.93 5991.31 5086.93 5993.75 5088.71 5997.31C5090.48 6000.87 5091.37 6005.09 5091.37 6009.98C5091.37 6018.88 5087.37 6027.1 5079.37 6034.66C5066.03 6047.11 5047.57 6053.34 5024.01 6053.34ZM5124.57 5888.59C5124.57 5856.57 5131.24 5827.89 5144.58 5802.54C5158.37 5776.75 5177.04 5756.74 5200.61 5742.51C5224.62 5727.84 5251.75 5720.5 5281.99 5720.5C5311.33 5720.5 5336.9 5727.17 5358.69 5740.51C5380.92 5753.41 5398.04 5771.64 5410.05 5795.21C5422.06 5818.78 5428.06 5846.12 5428.06 5877.25V5881.92C5428.06 5887.7 5426.72 5891.7 5424.06 5893.92C5421.83 5896.15 5417.61 5897.26 5411.38 5897.26H5170.6C5170.6 5901.26 5170.82 5904.37 5171.26 5906.6C5174.38 5938.61 5186.38 5964.4 5207.28 5983.97C5228.63 6003.53 5255.31 6013.32 5287.32 6013.32C5314.45 6013.32 5336.01 6007.98 5352.02 5997.31C5368.47 5986.64 5381.37 5972.41 5390.71 5954.62C5392.04 5954.18 5394.93 5954.84 5399.38 5956.62C5404.27 5957.96 5408.49 5960.62 5412.05 5964.63C5416.05 5968.63 5418.05 5973.74 5418.05 5979.97C5418.05 5985.3 5415.83 5991.53 5411.38 5998.64C5407.38 6005.76 5401.16 6012.65 5392.71 6019.32C5381.59 6029.1 5366.92 6037.33 5348.69 6044C5330.45 6050.22 5309.78 6053.34 5286.65 6053.34C5254.64 6053.34 5226.4 6046.44 5201.95 6032.66C5177.49 6018.88 5158.37 5999.53 5144.58 5974.63C5131.24 5949.28 5124.57 5920.6 5124.57 5888.59ZM5380.7 5862.57C5379.37 5831.45 5369.81 5806.55 5352.02 5787.87C5334.23 5768.75 5310.89 5759.19 5281.99 5759.19C5253.08 5759.19 5228.63 5768.75 5208.62 5787.87C5188.61 5806.99 5176.38 5831.89 5171.93 5862.57H5380.7ZM5488.4 6019.99C5475.5 6008.87 5469.05 5998.2 5469.05 5987.97C5469.05 5983.08 5470.39 5978.86 5473.05 5975.3C5476.17 5971.74 5479.5 5969.07 5483.06 5967.29C5486.62 5965.07 5488.84 5964.18 5489.73 5964.63C5500.4 5979.74 5514.85 5991.97 5533.08 6001.31C5551.32 6010.2 5572.88 6014.65 5597.78 6014.65C5622.68 6014.65 5642.03 6009.98 5655.81 6000.64C5670.04 5990.86 5677.16 5977.97 5677.16 5961.96C5677.16 5949.95 5673.6 5940.61 5666.48 5933.94C5659.81 5927.27 5650.7 5922.16 5639.14 5918.6C5628.02 5914.6 5611.12 5910.15 5588.45 5905.26C5566.66 5900.82 5548.2 5895.92 5533.08 5890.59C5517.97 5884.81 5505.07 5876.14 5494.4 5864.58C5483.73 5852.57 5478.39 5836.56 5478.39 5816.55C5478.39 5788.09 5489.28 5764.97 5511.07 5747.18C5533.31 5729.4 5562.65 5720.5 5599.12 5720.5C5623.13 5720.5 5644.03 5723.84 5661.82 5730.51C5679.6 5737.18 5693.39 5745.85 5703.17 5756.52C5706.73 5760.08 5709.62 5764.3 5711.84 5769.19C5714.06 5773.64 5715.18 5777.87 5715.18 5781.87C5715.18 5786.76 5713.62 5791.21 5710.51 5795.21C5707.84 5798.77 5704.5 5801.66 5700.5 5803.88C5696.94 5805.66 5694.94 5806.32 5694.5 5805.88C5685.61 5792.1 5672.71 5780.76 5655.81 5771.86C5638.92 5762.97 5620.24 5758.52 5599.78 5758.52C5575.77 5758.52 5556.87 5763.41 5543.09 5773.2C5529.75 5782.98 5523.08 5795.65 5523.08 5811.22C5523.08 5822.33 5526.41 5831.23 5533.08 5837.9C5539.75 5844.12 5548.65 5849.23 5559.76 5853.24C5570.88 5856.79 5587.33 5861.02 5609.12 5865.91C5632.69 5871.25 5652.03 5876.8 5667.15 5882.58C5682.71 5887.92 5696.05 5896.59 5707.17 5908.6C5718.29 5920.6 5723.85 5936.61 5723.85 5956.62C5723.85 5985.97 5712.29 6009.54 5689.16 6027.32C5666.48 6044.67 5635.8 6053.34 5597.12 6053.34C5572.66 6053.34 5551.32 6050.22 5533.08 6044C5514.85 6037.77 5499.96 6029.77 5488.4 6019.99ZM5921.03 5768.53H5876.34C5868.79 5768.53 5863.45 5766.97 5860.34 5763.86C5857.22 5760.75 5855.67 5756.08 5855.67 5749.85V5745.85C5855.67 5739.62 5857.22 5735.18 5860.34 5732.51C5863.45 5729.4 5868.79 5727.84 5876.34 5727.84H5921.03V5695.82C5921.03 5659.36 5929.04 5631.79 5945.05 5613.12C5961.05 5594.44 5983.95 5585.1 6013.75 5585.1C6037.76 5585.1 6055.77 5590.44 6067.77 5601.11C6074.89 5606.89 6078.45 5614.45 6078.45 5623.79C6078.45 5628.24 6077.56 5632.24 6075.78 5635.79C6074 5638.91 6072 5641.35 6069.77 5643.13C6068 5644.91 6066.88 5645.58 6066.44 5645.13C6061.55 5639.8 6054.66 5635.35 6045.76 5631.79C6036.87 5627.79 6027.75 5625.79 6018.42 5625.79C6001.07 5625.79 5988.18 5631.79 5979.73 5643.8C5971.28 5655.36 5967.06 5674.04 5967.06 5699.83V5727.84H6028.42C6042.65 5727.84 6049.76 5733.84 6049.76 5745.85V5749.85C6049.76 5762.3 6042.65 5768.53 6028.42 5768.53H5968.39V6025.32C5968.39 6040.44 5961.5 6048 5947.71 6048H5942.38C5928.15 6048 5921.03 6040.44 5921.03 6025.32V5768.53ZM6073.62 5886.59C6073.62 5854.57 6080.51 5826.11 6094.29 5801.21C6108.08 5775.86 6127.2 5756.08 6151.65 5741.85C6176.11 5727.62 6204.12 5720.5 6235.7 5720.5C6266.82 5720.5 6294.39 5727.62 6318.4 5741.85C6342.86 5756.08 6361.98 5776.09 6375.77 5801.88C6389.55 5827.22 6396.44 5855.9 6396.44 5887.92C6396.44 5919.49 6389.55 5947.95 6375.77 5973.3C6361.98 5998.2 6342.86 6017.76 6318.4 6031.99C6293.95 6046.22 6266.16 6053.34 6235.03 6053.34C6203.9 6053.34 6175.89 6046.22 6150.99 6031.99C6126.53 6017.76 6107.41 5997.98 6093.63 5972.63C6080.29 5947.28 6073.62 5918.6 6073.62 5886.59ZM6349.75 5887.92C6349.75 5863.91 6344.86 5842.34 6335.08 5823.22C6325.3 5803.66 6311.73 5788.54 6294.39 5777.87C6277.05 5766.75 6257.48 5761.19 6235.7 5761.19C6213.91 5761.19 6194.12 5766.53 6176.33 5777.2C6158.99 5787.87 6145.21 5802.77 6134.98 5821.89C6125.2 5841.01 6120.31 5862.57 6120.31 5886.59C6120.31 5910.6 6125.2 5932.17 6134.98 5951.29C6145.21 5970.41 6158.99 5985.53 6176.33 5996.64C6194.12 6007.31 6213.91 6012.65 6235.7 6012.65C6257.48 6012.65 6277.05 6007.31 6294.39 5996.64C6311.73 5985.97 6325.3 5971.3 6335.08 5952.62C6344.86 5933.5 6349.75 5911.93 6349.75 5887.92ZM6591.7 5720.5C6605.93 5720.5 6617.27 5723.84 6625.71 5730.51C6634.61 5736.73 6639.05 5744.96 6639.05 5755.19C6639.05 5760.97 6637.94 5765.86 6635.72 5769.86C6633.94 5773.86 6631.72 5776.98 6629.05 5779.2C6626.38 5780.98 6624.82 5781.65 6624.38 5781.2C6615.49 5772.31 6602.81 5767.86 6586.36 5767.86C6561.01 5767.86 6541.89 5779.42 6529 5802.54C6516.55 5825.67 6510.32 5857.91 6510.32 5899.26V6025.32C6510.32 6040.44 6503.43 6048 6489.65 6048H6484.31C6469.64 6048 6462.3 6040.44 6462.3 6025.32V5730.51C6462.3 5729.62 6464.08 5728.51 6467.63 5727.17C6471.19 5725.84 6475.19 5725.17 6479.64 5725.17C6496.09 5725.17 6505.43 5735.84 6507.65 5757.19C6508.54 5772.31 6508.99 5783.87 6508.99 5791.87C6515.21 5768.31 6525.44 5750.52 6539.67 5738.51C6553.9 5726.51 6571.24 5720.5 6591.7 5720.5ZM6914.06 6053.34C6886.05 6053.34 6860.92 6046.44 6838.69 6032.66C6816.46 6018.43 6798.89 5998.87 6786 5973.96C6773.55 5948.62 6767.32 5919.49 6767.32 5886.59C6767.32 5854.13 6773.55 5825.45 6786 5800.54C6798.89 5775.2 6816.46 5755.63 6838.69 5741.85C6861.37 5727.62 6886.94 5720.5 6915.4 5720.5C6942.08 5720.5 6965.42 5726.28 6985.43 5737.85C7005.44 5749.41 7020.34 5764.08 7030.12 5781.87V5596.44C7030.12 5595.11 7031.68 5594 7034.79 5593.11C7038.35 5591.77 7042.35 5591.11 7046.79 5591.11C7067.69 5591.11 7078.14 5605.34 7078.14 5633.79V6025.32C7078.14 6040.44 7071.03 6048 7056.8 6048H7052.13C7038.35 6048 7031.45 6040.89 7031.45 6026.66C7031.01 6017.76 7030.79 6003.98 7030.79 5985.3C7018.78 6006.65 7002.99 6023.32 6983.43 6035.33C6964.31 6047.33 6941.19 6053.34 6914.06 6053.34ZM7030.12 5837.23C7021.23 5813.22 7007.66 5794.54 6989.43 5781.2C6971.65 5767.86 6949.63 5761.19 6923.4 5761.19C6891.38 5761.19 6865.37 5772.75 6845.36 5795.87C6825.35 5819 6815.35 5849.23 6815.35 5886.59C6815.35 5911.04 6819.79 5932.83 6828.69 5951.95C6838.02 5971.07 6850.92 5985.97 6867.37 5996.64C6883.82 6007.31 6902.28 6012.65 6922.73 6012.65C6942.3 6012.65 6960.31 6008.2 6976.76 5999.31C6993.21 5989.97 7006.11 5977.52 7015.45 5961.96C7025.23 5945.95 7030.12 5928.16 7030.12 5908.6V5837.23ZM7143.81 5886.59C7143.81 5854.57 7150.7 5826.11 7164.49 5801.21C7178.27 5775.86 7197.39 5756.08 7221.85 5741.85C7246.31 5727.62 7274.32 5720.5 7305.89 5720.5C7337.02 5720.5 7364.59 5727.62 7388.6 5741.85C7413.06 5756.08 7432.18 5776.09 7445.96 5801.88C7459.75 5827.22 7466.64 5855.9 7466.64 5887.92C7466.64 5919.49 7459.75 5947.95 7445.96 5973.3C7432.18 5998.2 7413.06 6017.76 7388.6 6031.99C7364.14 6046.22 7336.35 6053.34 7305.23 6053.34C7274.1 6053.34 7246.08 6046.22 7221.18 6031.99C7196.73 6017.76 7177.61 5997.98 7163.82 5972.63C7150.48 5947.28 7143.81 5918.6 7143.81 5886.59ZM7419.95 5887.92C7419.95 5863.91 7415.06 5842.34 7405.28 5823.22C7395.49 5803.66 7381.93 5788.54 7364.59 5777.87C7347.25 5766.75 7327.68 5761.19 7305.89 5761.19C7284.1 5761.19 7264.32 5766.53 7246.53 5777.2C7229.19 5787.87 7215.4 5802.77 7205.18 5821.89C7195.39 5841.01 7190.5 5862.57 7190.5 5886.59C7190.5 5910.6 7195.39 5932.17 7205.18 5951.29C7215.4 5970.41 7229.19 5985.53 7246.53 5996.64C7264.32 6007.31 7284.1 6012.65 7305.89 6012.65C7327.68 6012.65 7347.25 6007.31 7364.59 5996.64C7381.93 5985.97 7395.49 5971.3 7405.28 5952.62C7415.06 5933.5 7419.95 5911.93 7419.95 5887.92ZM7637.88 6186.07C7538.72 6186.07 7489.14 6157.17 7489.14 6099.36C7489.14 6076.68 7498.92 6057.56 7518.49 6042C7538.05 6025.99 7562.95 6015.1 7593.19 6009.31C7579.85 6001.31 7573.18 5990.64 7573.18 5977.3C7573.18 5963.51 7579.63 5952.18 7592.53 5943.28C7568.07 5935.72 7548.5 5922.6 7533.83 5903.93C7519.16 5884.81 7511.82 5863.02 7511.82 5838.56C7511.82 5816.77 7517.38 5796.99 7528.49 5779.2C7539.61 5760.97 7554.95 5746.74 7574.52 5736.51C7594.53 5725.84 7616.54 5720.5 7640.55 5720.5C7669.01 5720.5 7694.13 5727.84 7715.92 5742.51L7739.93 5706.5C7747.94 5693.6 7757.27 5687.15 7767.95 5687.15C7773.28 5687.15 7777.95 5688.71 7781.95 5691.82C7785.96 5694.49 7789.07 5697.6 7791.29 5701.16C7793.96 5704.27 7795.07 5706.72 7794.63 5708.5L7741.93 5764.53C7761.05 5785.87 7770.61 5809.88 7770.61 5836.56C7770.61 5857.91 7765.06 5877.25 7753.94 5894.59C7742.82 5911.93 7727.26 5925.72 7707.25 5935.94C7687.68 5945.73 7665.67 5950.62 7641.22 5950.62C7633.66 5950.62 7627.88 5950.4 7623.87 5949.95C7618.54 5953.51 7615.87 5959.29 7615.87 5967.29C7616.31 5975.3 7620.98 5981.3 7629.88 5985.3C7638.77 5989.3 7654.78 5993.97 7677.9 5999.31L7702.58 6005.31C7766.17 6020.88 7797.96 6049.34 7797.96 6090.69C7797.96 6120.48 7783.95 6143.83 7755.94 6160.72C7727.93 6177.62 7688.57 6186.07 7637.88 6186.07ZM7640.55 5917.27C7664.56 5917.27 7684.13 5909.93 7699.25 5895.26C7714.81 5880.58 7722.59 5861.24 7722.59 5837.23C7722.59 5813.22 7715.03 5793.87 7699.91 5779.2C7684.79 5764.08 7664.78 5756.52 7639.88 5756.52C7615.87 5756.52 7596.3 5764.08 7581.19 5779.2C7566.07 5793.87 7558.51 5813.22 7558.51 5837.23C7558.51 5861.24 7566.07 5880.58 7581.19 5895.26C7596.75 5909.93 7616.54 5917.27 7640.55 5917.27ZM7639.22 6151.39C7674.79 6151.39 7702.36 6146.49 7721.92 6136.71C7741.49 6126.93 7751.27 6112.7 7751.27 6094.02C7751.27 6080.68 7745.05 6070.01 7732.6 6062.01C7720.14 6054 7703.02 6047.33 7681.24 6042L7641.88 6032.66C7612.09 6035.33 7586.97 6042.44 7566.51 6054C7546.06 6066.01 7535.83 6080.91 7535.83 6098.69C7535.83 6115.59 7544.5 6128.49 7561.84 6137.38C7579.63 6146.72 7605.42 6151.39 7639.22 6151.39ZM7834.62 6019.99C7821.72 6008.87 7815.28 5998.2 7815.28 5987.97C7815.28 5983.08 7816.61 5978.86 7819.28 5975.3C7822.39 5971.74 7825.73 5969.07 7829.28 5967.29C7832.84 5965.07 7835.06 5964.18 7835.95 5964.63C7846.63 5979.74 7861.08 5991.97 7879.31 6001.31C7897.54 6010.2 7919.11 6014.65 7944.01 6014.65C7968.91 6014.65 7988.25 6009.98 8002.04 6000.64C8016.27 5990.86 8023.38 5977.97 8023.38 5961.96C8023.38 5949.95 8019.82 5940.61 8012.71 5933.94C8006.04 5927.27 7996.92 5922.16 7985.36 5918.6C7974.25 5914.6 7957.35 5910.15 7934.67 5905.26C7912.88 5900.82 7894.43 5895.92 7879.31 5890.59C7864.19 5884.81 7851.3 5876.14 7840.62 5864.58C7829.95 5852.57 7824.62 5836.56 7824.62 5816.55C7824.62 5788.09 7835.51 5764.97 7857.3 5747.18C7879.53 5729.4 7908.88 5720.5 7945.34 5720.5C7969.35 5720.5 7990.25 5723.84 8008.04 5730.51C8025.83 5737.18 8039.61 5745.85 8049.39 5756.52C8052.95 5760.08 8055.84 5764.3 8058.07 5769.19C8060.29 5773.64 8061.4 5777.87 8061.4 5781.87C8061.4 5786.76 8059.84 5791.21 8056.73 5795.21C8054.06 5798.77 8050.73 5801.66 8046.73 5803.88C8043.17 5805.66 8041.17 5806.32 8040.72 5805.88C8031.83 5792.1 8018.93 5780.76 8002.04 5771.86C7985.14 5762.97 7966.46 5758.52 7946.01 5758.52C7922 5758.52 7903.1 5763.41 7889.31 5773.2C7875.97 5782.98 7869.3 5795.65 7869.3 5811.22C7869.3 5822.33 7872.64 5831.23 7879.31 5837.9C7885.98 5844.12 7894.87 5849.23 7905.99 5853.24C7917.11 5856.79 7933.56 5861.02 7955.35 5865.91C7978.91 5871.25 7998.26 5876.8 8013.38 5882.58C8028.94 5887.92 8042.28 5896.59 8053.4 5908.6C8064.51 5920.6 8070.07 5936.61 8070.07 5956.62C8070.07 5985.97 8058.51 6009.54 8035.39 6027.32C8012.71 6044.67 7982.03 6053.34 7943.34 6053.34C7918.88 6053.34 7897.54 6050.22 7879.31 6044C7861.08 6037.77 7846.18 6029.77 7834.62 6019.99Z" fill="#ED6565"/>
</svg>
